<mxfile host="app.diagrams.net" modified="2021-07-02T06:10:58.470Z" agent="5.0 (Macintosh; Intel Mac OS X 10_15_7) AppleWebKit/537.36 (KHTML, like Gecko) Chrome/91.0.4472.114 Safari/537.36" etag="7zBpKlUuUGFa2wV31a27" version="14.4.2" type="github">
  <diagram id="R2lEEEUBdFMjLlhIrx00" name="Page-1">
    <mxGraphModel dx="946" dy="613" grid="1" gridSize="10" guides="1" tooltips="1" connect="1" arrows="1" fold="1" page="1" pageScale="1" pageWidth="850" pageHeight="1100" math="0" shadow="0" extFonts="Permanent Marker^https://fonts.googleapis.com/css?family=Permanent+Marker">
      <root>
        <mxCell id="0" />
        <mxCell id="1" parent="0" />
        <mxCell id="poez0ldSHQT0EuFKXNPQ-9" value="题目&lt;br style=&quot;font-size: 15px;&quot;&gt;question&lt;br style=&quot;font-size: 15px;&quot;&gt;&lt;br style=&quot;font-size: 15px;&quot;&gt;&lt;u style=&quot;font-size: 15px;&quot;&gt;题目id&lt;br style=&quot;font-size: 15px;&quot;&gt;question_id&lt;/u&gt;" style="whiteSpace=wrap;html=1;align=center;fontSize=15;" vertex="1" parent="1">
          <mxGeometry x="450" y="150" width="130" height="130" as="geometry" />
        </mxCell>
        <mxCell id="poez0ldSHQT0EuFKXNPQ-10" value="题库分类表&lt;br style=&quot;font-size: 15px;&quot;&gt;category&lt;br style=&quot;font-size: 15px;&quot;&gt;&lt;br style=&quot;font-size: 15px;&quot;&gt;题库分类id&lt;br style=&quot;font-size: 15px;&quot;&gt;category_id" style="whiteSpace=wrap;html=1;align=center;fontSize=15;" vertex="1" parent="1">
          <mxGeometry x="230" y="150" width="120" height="130" as="geometry" />
        </mxCell>
        <mxCell id="poez0ldSHQT0EuFKXNPQ-12" value="练习题&lt;br style=&quot;font-size: 16px;&quot;&gt;practice&lt;br style=&quot;font-size: 16px;&quot;&gt;&lt;br style=&quot;font-size: 16px;&quot;&gt;&lt;u style=&quot;font-size: 16px;&quot;&gt;练习题id&lt;br style=&quot;font-size: 16px;&quot;&gt;practice_id&lt;/u&gt;" style="whiteSpace=wrap;html=1;align=center;fontSize=16;" vertex="1" parent="1">
          <mxGeometry x="230" y="400" width="120" height="120" as="geometry" />
        </mxCell>
        <mxCell id="poez0ldSHQT0EuFKXNPQ-13" value="" style="edgeStyle=entityRelationEdgeStyle;fontSize=12;html=1;endArrow=ERoneToMany;entryX=0;entryY=0.5;entryDx=0;entryDy=0;" edge="1" parent="1" source="poez0ldSHQT0EuFKXNPQ-10" target="poez0ldSHQT0EuFKXNPQ-9">
          <mxGeometry width="100" height="100" relative="1" as="geometry">
            <mxPoint x="400" y="410" as="sourcePoint" />
            <mxPoint x="500" y="310" as="targetPoint" />
          </mxGeometry>
        </mxCell>
        <mxCell id="poez0ldSHQT0EuFKXNPQ-14" value="1:N" style="edgeLabel;html=1;align=center;verticalAlign=middle;resizable=0;points=[];fontSize=15;" vertex="1" connectable="0" parent="poez0ldSHQT0EuFKXNPQ-13">
          <mxGeometry x="-0.4667" y="1" relative="1" as="geometry">
            <mxPoint x="18" y="1" as="offset" />
          </mxGeometry>
        </mxCell>
        <mxCell id="poez0ldSHQT0EuFKXNPQ-16" value="1:1" style="endArrow=none;html=1;rounded=0;fontSize=16;entryX=0.5;entryY=1;entryDx=0;entryDy=0;exitX=0.5;exitY=0;exitDx=0;exitDy=0;" edge="1" parent="1" source="poez0ldSHQT0EuFKXNPQ-12" target="poez0ldSHQT0EuFKXNPQ-10">
          <mxGeometry relative="1" as="geometry">
            <mxPoint x="370" y="360" as="sourcePoint" />
            <mxPoint x="530" y="360" as="targetPoint" />
          </mxGeometry>
        </mxCell>
      </root>
    </mxGraphModel>
  </diagram>
</mxfile>
